<svg width="24" height="24" viewBox="0 0 24 24" fill="none" xmlns="http://www.w3.org/2000/svg">
<g opacity="0.5">
<path d="M12.6236 12.1446C12.6236 15.1817 12.6236 18.2195 12.6236 21.2566C12.6236 21.3744 12.6443 21.497 12.619 21.6086C12.5728 21.8129 12.499 22.0102 12.4367 22.2105C12.2345 22.1304 11.9945 22.0958 11.8353 21.9622C10.0119 20.4362 8.20396 18.8906 6.37904 17.3661C6.21832 17.2318 5.97146 17.1469 5.76305 17.143C4.62334 17.1218 3.48133 17.099 2.3424 17.1414C1.07119 17.1893 0.645913 16.7234 0.335993 15.5376C0.0729842 14.5295 0.0345327 13.4451 0.00607852 12.3913C-0.0208376 11.4146 0.0429921 10.4261 0.170651 9.45721C0.245247 8.89144 0.477495 8.33117 0.724354 7.8102C0.966599 7.29943 1.4434 7.09906 2.00325 7.10299C3.25908 7.11085 4.51491 7.11635 5.76997 7.09513C5.97838 7.09199 6.22447 7.00241 6.3852 6.86804C8.20011 5.35147 10.0012 3.8184 11.8061 2.29004C11.8845 2.22325 11.9614 2.15174 12.0476 2.09674C12.3513 1.90186 12.5728 2.00637 12.6144 2.36548C12.629 2.49513 12.6236 2.62715 12.6236 2.75759C12.6236 5.88659 12.6236 9.01559 12.6236 12.1446Z" fill="#ECF1F0"/>
<path fillRule="evenodd" clipRule="evenodd" d="M23.0763 15.9995L23.7631 15.3127L20.5652 12.1148L23.9927 8.6873L23.3059 8.00047L19.8784 11.428L16.4504 8L15.7636 8.68682L19.1916 12.1148L15.9932 15.3132L16.68 16L19.8784 12.8017L23.0763 15.9995Z" fill="#ECF1F0"/>
</g>
</svg>
